<svg width="272" height="232" viewBox="0 0 272 232" fill="none" xmlns="http://www.w3.org/2000/svg">
<circle cx="87.4394" cy="132.422" r="7.51013" fill="white"/>
<circle cx="113.842" cy="132.789" r="7.87681" fill="white"/>
<path fill-rule="evenodd" clip-rule="evenodd" d="M31.5791 58C34.6407 58 37.1225 60.482 37.1225 63.5435L37.1222 93.298C37.1221 96.3596 34.6402 98.8414 31.5786 98.8414C28.5171 98.8414 26.0352 96.3594 26.0352 93.2979L26.0353 83.9642H11.659C12.0296 85.301 12.5122 86.303 12.8878 86.9542C13.1002 87.3224 13.2764 87.575 13.3747 87.7076C13.411 87.7567 13.4363 87.7889 13.4483 87.8039C15.4269 90.0812 15.2218 93.5333 12.9702 95.5592C10.6943 97.607 7.18922 97.422 5.14144 95.1461L9.26239 91.4383C5.14144 95.1461 5.13889 95.1432 5.1363 95.1404L5.13096 95.1344L5.1197 95.1218L5.09487 95.0937L5.03621 95.0263C4.99322 94.9763 4.94253 94.9162 4.885 94.8461C4.76999 94.706 4.62732 94.5253 4.46383 94.3044C4.13719 93.8632 3.72514 93.2586 3.28391 92.4936C2.40165 90.964 1.39483 88.7793 0.730595 85.9745C-0.624633 80.2521 -0.44178 72.4169 4.3018 62.925C5.67043 60.1864 9.00003 59.0758 11.7387 60.4444C14.4773 61.813 15.5879 65.1426 14.2193 67.8813C13.324 69.6727 12.6613 71.3381 12.1821 72.8772H26.0354L26.0355 63.5434C26.0356 60.4818 28.5175 58 31.5791 58Z" fill="#02FB45"/>
<path d="M39.0394 205.175V130.37C38.5622 119.872 45.0518 98.8768 74.8274 98.8768C104.603 98.8768 115.065 98.8768 122.7 98.8768C138.447 98.8768 160.718 110.615 160.718 146.117C160.718 190.494 106.32 190.494 109.183 174.747C112.046 159 153.193 164.768 160.718 204.809C167.76 242.284 61.9197 219.898 61.9197 171.884C61.9197 163.295 66.8109 156.996 74.8274 160.432C84.8478 164.726 90.5738 219.124 67.6695 223.418C49.3462 226.854 39.0155 219.124 39.0394 205.175Z" stroke="white" stroke-width="10"/>

<g class="arm">
<path fill-rule="evenodd" clip-rule="evenodd" d="M179.15 158.263C180.937 156.966 183.438 157.362 184.736 159.149C186.035 160.936 185.638 163.438 183.851 164.736L181.5 161.5C183.851 164.736 183.85 164.737 183.85 164.737L183.843 164.742L183.829 164.752L183.782 164.786C183.742 164.814 183.686 164.855 183.613 164.907C183.467 165.01 183.257 165.158 182.987 165.344C182.448 165.718 181.669 166.246 180.69 166.883C178.736 168.156 175.973 169.868 172.726 171.637C166.339 175.117 157.657 179.052 149.447 179.975C147.251 180.222 145.272 178.642 145.025 176.447C144.778 174.251 146.358 172.272 148.553 172.025C155.176 171.281 162.744 167.966 168.899 164.613C171.923 162.965 174.503 161.365 176.325 160.179C177.235 159.587 177.952 159.1 178.436 158.765C178.679 158.597 178.862 158.468 178.983 158.383C179.043 158.34 179.088 158.308 179.115 158.288L179.145 158.267L179.149 158.264L179.15 158.263Z" fill="white"/>
<path fill-rule="evenodd" clip-rule="evenodd" d="M177.566 145.11C179.715 144.595 181.874 145.918 182.389 148.067L183.279 151.771L186.692 146.751C187.934 144.924 190.422 144.45 192.249 145.692C194.076 146.935 194.55 149.422 193.308 151.249L188.754 157.946L197.749 158.508C199.954 158.646 201.63 160.545 201.492 162.75C201.354 164.954 199.455 166.63 197.25 166.492L178.3 165.308L174.61 149.933C174.095 147.785 175.418 145.626 177.566 145.11Z" fill="white"/>
</g>

<g class="text-wrap">
<path class="bubble" d="M195.738 96.6282C193.958 97.4734 192.279 98.2505 190.708 98.9576C193.612 95.1038 195.986 90.0746 196.161 83.6233C196.247 80.4507 195.544 77.5929 193.683 75.3364C191.858 73.1227 189.357 72.0258 186.948 71.4405C184.558 70.8599 181.873 70.6916 179.243 70.6316C177.906 70.6012 176.514 70.5983 175.125 70.5963L174.97 70.5961C173.619 70.5942 172.261 70.5923 170.881 70.5682C165.098 70.4676 159.395 69.9723 154.334 67.7807C149.437 65.6605 144.898 61.8446 141.609 54.5506C138.33 47.2779 138.301 40.5334 140.634 34.4791C143.003 28.3327 147.939 22.5727 155.124 17.7065C169.53 7.94999 192.243 2.3194 217.559 4.44714C242.858 6.57343 260.151 17.3823 265.863 29.7337C268.655 35.7711 268.827 42.3989 265.691 49.1903C262.506 56.0883 255.776 63.4064 244.313 70.2445C225.345 81.5597 208.236 90.6917 195.738 96.6282Z" stroke="white" stroke-width="8" stroke-linecap="round"/>
<path class="txt" style="animation-delay:1.4s" fill-rule="evenodd" clip-rule="evenodd" d="M162.581 31.314C163.806 31.7873 164.41 33.1474 163.928 34.352C163.337 35.8316 162.734 37.906 162.771 40.6074L170.138 39.6359L170.055 34.7059C170.033 33.4119 171.082 32.3454 172.399 32.3238C173.716 32.3022 174.801 33.3337 174.823 34.6277L175.088 50.2501C175.11 51.5441 174.061 52.6107 172.744 52.6323C171.427 52.6539 170.342 51.6224 170.32 50.3283L170.219 44.354L163.571 45.2306C164.079 46.3868 164.915 47.4888 166.336 49.1959C167.17 50.1975 167.02 51.6739 166.001 52.4934C164.981 53.313 163.479 53.1653 162.645 52.1637C160.247 49.2828 158.75 47.2596 158.23 43.5816C157.545 38.7331 158.517 35.0705 159.489 32.6383C159.971 31.4337 161.355 30.8408 162.581 31.314Z" fill="white"/>
<path class="txt" style="animation-delay:1.5s" fill-rule="evenodd" clip-rule="evenodd" d="M182.211 36.4978C183.816 35.9663 186.621 35.2953 189.843 35.2953C190.866 35.2953 191.695 34.3676 191.695 33.2232C191.695 32.0788 190.866 31.1511 189.843 31.1511C185.182 31.1511 181.25 32.3827 179.746 33.0639C179.121 33.3466 178.683 33.9869 178.602 34.7355C178.375 36.8322 178.591 40.3296 178.85 43.2899C179.007 45.0839 179.189 46.7792 179.332 48.0242C179.404 48.6474 179.465 49.1594 179.51 49.5164C179.532 49.695 179.549 49.8349 179.561 49.9307L179.575 50.0407L179.58 50.0803C179.58 50.0804 179.58 50.0805 181.412 49.782L179.58 50.0803C179.709 51.0718 180.454 51.8181 181.348 51.8528C182.958 51.9153 185.145 51.8217 187.128 51.6259C188.124 51.5275 189.092 51.401 189.931 51.2496C190.732 51.1048 191.537 50.9165 192.135 50.6566C193.088 50.2424 193.561 49.0418 193.19 47.975C192.82 46.9082 191.748 46.3792 190.795 46.7934C190.582 46.8859 190.103 47.0206 189.341 47.1584C188.615 47.2895 187.739 47.4052 186.803 47.4977C185.535 47.623 184.2 47.7013 183.031 47.7222C183.022 47.6487 183.013 47.5733 183.005 47.4961C182.917 46.7378 182.816 45.8118 182.715 44.8012L190.157 43.3686C191.165 43.1746 191.841 42.1031 191.668 40.9752C191.495 39.8474 190.537 39.0904 189.53 39.2843L182.361 40.6643C182.255 39.1014 182.193 37.6397 182.211 36.4978Z" fill="white"/>
<path class="txt" style="animation-delay:1.6s" fill-rule="evenodd" clip-rule="evenodd" d="M197.794 31.1546C198.918 31.2212 199.778 32.2203 199.713 33.3862C199.586 35.6978 199.779 39.6897 200.018 43.2133C200.119 44.7036 200.226 46.0824 200.316 47.1718L209.062 45.1564C210.162 44.9031 211.251 45.6218 211.495 46.7617C211.74 47.9017 211.046 49.0311 209.947 49.2844L198.936 51.8217C198.366 51.953 197.769 51.8247 197.296 51.4693C196.823 51.1139 196.52 50.5655 196.464 49.963L198.493 49.7577C196.464 49.963 196.464 49.9631 196.464 49.963L196.451 49.8274C196.443 49.74 196.431 49.6117 196.417 49.4471C196.387 49.1179 196.345 48.6432 196.296 48.0584C196.198 46.8894 196.069 45.2782 195.949 43.5101C195.713 40.021 195.497 35.7669 195.642 33.1449C195.706 31.9791 196.67 31.088 197.794 31.1546Z" fill="white"/>
<path class="txt" style="animation-delay:1.7s" fill-rule="evenodd" clip-rule="evenodd" d="M214.883 30.0035C216.007 30.0701 216.866 31.0692 216.802 32.2351C216.675 34.5467 216.867 38.5386 217.106 42.0622C217.207 43.5524 217.315 44.9313 217.404 46.0206L226.151 44.0053C227.25 43.752 228.34 44.4707 228.584 45.6106C228.828 46.7506 228.135 47.88 227.036 48.1333L216.024 50.6706C215.454 50.8019 214.857 50.6736 214.385 50.3182C213.912 49.9628 213.609 49.4144 213.552 48.8118L215.582 48.6065C213.552 48.8118 213.552 48.812 213.552 48.8118L213.54 48.6763C213.532 48.5889 213.52 48.4606 213.505 48.296C213.476 47.9668 213.434 47.4921 213.385 46.9073C213.286 45.7383 213.158 44.127 213.038 42.3589C212.801 38.8699 212.586 34.6157 212.73 31.9938C212.795 30.828 213.758 29.9369 214.883 30.0035Z" fill="white"/>
<path class="txt" style="animation-delay:1.8s" fill-rule="evenodd" clip-rule="evenodd" d="M235.193 36.7591C234.204 37.7192 233.534 39.1227 233.789 41.0885C234.195 44.219 236.649 45.9848 237.9 46.4955C240.412 46.9984 241.834 46.1703 242.698 45.031C243.695 43.7173 244.157 41.6919 244.011 39.7389C243.895 38.1823 243.098 37.0994 242.01 36.3461C240.865 35.5535 239.524 35.2283 238.733 35.2283C237.663 35.2283 236.248 35.7355 235.193 36.7591ZM232.474 33.7934C234.255 32.0646 236.639 31.1511 238.733 31.1511C240.305 31.1511 242.417 31.7139 244.222 32.9633C246.084 34.2521 247.733 36.3655 247.962 39.4259C248.162 42.0898 247.587 45.2141 245.821 47.5407C243.939 50.0207 240.907 51.314 236.944 50.4561C236.856 50.4371 236.77 50.4121 236.686 50.3811C234.669 49.6406 230.548 46.9195 229.862 41.6278C229.426 38.2664 230.628 35.5857 232.474 33.7934Z" fill="white"/>
</g>
</svg>
